<?xml version="1.0" encoding="utf-8"?>
<!-- Generator: Adobe Illustrator 22.1.0, SVG Export Plug-In . SVG Version: 6.00 Build 0)  -->
<svg version="1.1" id="Layer_1" xmlns="http://www.w3.org/2000/svg" xmlns:xlink="http://www.w3.org/1999/xlink" x="0px" y="0px"
	 width="900px" height="1332px" viewBox="0 0 900 1332" style="enable-background:new 0 0 900 1332;" xml:space="preserve">
<style type="text/css">
	.st0{fill:none;stroke:#FF0000;stroke-width:1.000000e-03;}
	.st1{fill:none;stroke:#0000FF;}
	.st2{font-family:'Futura-Medium';}
	.st3{font-size:36px;}
	.st4{fill:#0000FF;}
	.st5{fill:#3853A3;}
</style>
<g transform="translate(22.5, 22.5) ">
	<polyline class="st0" points="238.5,-15.3 264.2,-15.3 264.2,11.7 272.7,11.7 272.7,19.9 262.2,19.9 262.2,30.5 272.7,30.5 
		272.7,38.7 264.2,38.7 264.2,60.3 272.7,60.3 272.7,81.9 264.2,81.9 264.2,103.5 272.7,103.5 272.7,125.1 264.2,125.1 264.2,146.7 
		272.7,146.7 272.7,168.3 264.2,168.3 264.2,189.9 272.7,189.9 272.7,211.5 264.2,211.5 264.2,233.1 272.7,233.1 272.7,254.7 
		264.2,254.7 264.2,276.3 272.7,276.3 272.7,297.9 264.2,297.9 264.2,319.5 272.7,319.5 272.7,341.1 264.2,341.1 264.2,362.7 
		272.7,362.7 272.7,384.3 264.2,384.3 264.2,405.9 272.7,405.9 272.7,427.5 264.2,427.5 264.2,449.1 272.7,449.1 272.7,470.7 
		264.2,470.7 264.2,492.3 272.7,492.3 272.7,513.9 264.2,513.9 264.2,535.5 272.7,535.5 272.7,557.1 264.2,557.1 264.2,578.7 
		272.7,578.7 272.7,586.9 262.2,586.9 262.2,597.5 272.7,597.5 272.7,605.7 264.2,605.7 264.2,632.7 238.5,632.7 238.5,624.2 
		225.6,624.2 225.6,611.1 230.5,611.1 230.5,603.8 225.6,603.8 225.6,596.4 217.2,596.4 217.2,603.8 212.3,603.8 212.3,611.1 
		217.2,611.1 217.2,624.2 204.3,624.2 204.3,632.7 182.7,632.7 182.7,624.2 161.1,624.2 161.1,632.7 139.5,632.7 139.5,624.2 
		117.9,624.2 117.9,632.7 96.3,632.7 96.3,624.2 74.7,624.2 74.7,632.7 53.1,632.7 53.1,624.2 40.2,624.2 40.2,611.1 45.1,611.1 
		45.1,603.8 40.2,603.8 40.2,596.4 31.8,596.4 31.8,603.8 26.9,603.8 26.9,611.1 31.8,611.1 31.8,624.2 18.9,624.2 18.9,632.7 
		-6.8,632.7 -6.8,605.7 -15.3,605.7 -15.3,597.5 -4.8,597.5 -4.8,586.9 -15.3,586.9 -15.3,578.7 -6.8,578.7 -6.8,557.1 -15.3,557.1 
		-15.3,535.5 -6.8,535.5 -6.8,513.9 -15.3,513.9 -15.3,492.3 -6.8,492.3 -6.8,470.7 -15.3,470.7 -15.3,449.1 -6.8,449.1 -6.8,427.5 
		-15.3,427.5 -15.3,405.9 -6.8,405.9 -6.8,384.3 -15.3,384.3 -15.3,362.7 -6.8,362.7 -6.8,341.1 -15.3,341.1 -15.3,319.5 
		-6.8,319.5 -6.8,297.9 -15.3,297.9 -15.3,276.3 -6.8,276.3 -6.8,254.7 -15.3,254.7 -15.3,233.1 -6.8,233.1 -6.8,211.5 -15.3,211.5 
		-15.3,189.9 -6.8,189.9 -6.8,168.3 -15.3,168.3 -15.3,146.7 -6.8,146.7 -6.8,125.1 -15.3,125.1 -15.3,103.5 -6.8,103.5 -6.8,81.9 
		-15.3,81.9 -15.3,60.3 -6.8,60.3 -6.8,38.7 -15.3,38.7 -15.3,30.5 -4.8,30.5 -4.8,19.9 -15.3,19.9 -15.3,11.7 -6.8,11.7 
		-6.8,-15.3 18.9,-15.3 	"/>
	<line class="st0" x1="182.7" y1="-15.3" x2="204.3" y2="-15.3"/>
	<line class="st0" x1="139.5" y1="-15.3" x2="161.1" y2="-15.3"/>
	<line class="st0" x1="96.3" y1="-15.3" x2="117.9" y2="-15.3"/>
	<line class="st0" x1="53.1" y1="-15.3" x2="74.7" y2="-15.3"/>
</g>
<g transform="translate(382.5, 22.5) ">
	<polyline class="st0" points="166.5,-15.3 192.2,-15.3 192.2,11.7 200.7,11.7 200.7,19.9 190.2,19.9 190.2,30.5 200.7,30.5 
		200.7,38.7 192.2,38.7 192.2,60.3 200.7,60.3 200.7,81.9 192.2,81.9 192.2,103.5 200.7,103.5 200.7,125.1 192.2,125.1 192.2,146.7 
		200.7,146.7 200.7,168.3 192.2,168.3 192.2,189.9 200.7,189.9 200.7,211.5 192.2,211.5 192.2,233.1 200.7,233.1 200.7,254.7 
		192.2,254.7 192.2,276.3 200.7,276.3 200.7,297.9 192.2,297.9 192.2,319.5 200.7,319.5 200.7,341.1 192.2,341.1 192.2,362.7 
		200.7,362.7 200.7,384.3 192.2,384.3 192.2,405.9 200.7,405.9 200.7,427.5 192.2,427.5 192.2,449.1 200.7,449.1 200.7,470.7 
		192.2,470.7 192.2,492.3 200.7,492.3 200.7,513.9 192.2,513.9 192.2,535.5 200.7,535.5 200.7,557.1 192.2,557.1 192.2,578.7 
		200.7,578.7 200.7,586.9 190.2,586.9 190.2,597.5 200.7,597.5 200.7,605.7 192.2,605.7 192.2,632.7 166.5,632.7 166.5,624.2 
		153.6,624.2 153.6,611.1 158.5,611.1 158.5,603.8 153.6,603.8 153.6,596.4 145.2,596.4 145.2,603.8 140.3,603.8 140.3,611.1 
		145.2,611.1 145.2,624.2 132.3,624.2 132.3,632.7 110.7,632.7 110.7,624.2 89.1,624.2 89.1,632.7 67.5,632.7 67.5,624.2 
		45.9,624.2 45.9,632.7 24.3,632.7 24.3,624.2 2.7,624.2 2.7,632.7 -18.9,632.7 -18.9,624.2 -31.8,624.2 -31.8,611.1 -26.9,611.1 
		-26.9,603.8 -31.8,603.8 -31.8,596.4 -40.2,596.4 -40.2,603.8 -45.1,603.8 -45.1,611.1 -40.2,611.1 -40.2,624.2 -53.1,624.2 
		-53.1,632.7 -78.8,632.7 -78.8,605.7 -87.3,605.7 -87.3,597.5 -76.8,597.5 -76.8,586.9 -87.3,586.9 -87.3,578.7 -78.8,578.7 
		-78.8,557.1 -87.3,557.1 -87.3,535.5 -78.8,535.5 -78.8,513.9 -87.3,513.9 -87.3,492.3 -78.8,492.3 -78.8,470.7 -87.3,470.7 
		-87.3,449.1 -78.8,449.1 -78.8,427.5 -87.3,427.5 -87.3,405.9 -78.8,405.9 -78.8,384.3 -87.3,384.3 -87.3,362.7 -78.8,362.7 
		-78.8,341.1 -87.3,341.1 -87.3,319.5 -78.8,319.5 -78.8,297.9 -87.3,297.9 -87.3,276.3 -78.8,276.3 -78.8,254.7 -87.3,254.7 
		-87.3,233.1 -78.8,233.1 -78.8,211.5 -87.3,211.5 -87.3,189.9 -78.8,189.9 -78.8,168.3 -87.3,168.3 -87.3,146.7 -78.8,146.7 
		-78.8,125.1 -87.3,125.1 -87.3,103.5 -78.8,103.5 -78.8,81.9 -87.3,81.9 -87.3,60.3 -78.8,60.3 -78.8,38.7 -87.3,38.7 -87.3,30.5 
		-76.8,30.5 -76.8,19.9 -87.3,19.9 -87.3,11.7 -78.8,11.7 -78.8,-15.3 -53.1,-15.3 	"/>
	<line class="st0" x1="110.7" y1="-15.3" x2="132.3" y2="-15.3"/>
	<line class="st0" x1="67.5" y1="-15.3" x2="89.1" y2="-15.3"/>
	<line class="st0" x1="24.3" y1="-15.3" x2="45.9" y2="-15.3"/>
	<line class="st0" x1="-18.9" y1="-15.3" x2="2.7" y2="-15.3"/>
</g>
<g transform="translate(22.5, 832.5) ">
	<polygon class="st0" points="-15.3,-168.8 18.9,-168.8 18.9,-177.3 30.7,-177.3 30.7,-166.8 41.3,-166.8 41.3,-177.3 53.1,-177.3 
		53.1,-168.8 74.7,-168.8 74.7,-177.3 96.3,-177.3 96.3,-168.8 117.9,-168.8 117.9,-177.3 139.5,-177.3 139.5,-168.8 161.1,-168.8 
		161.1,-177.3 182.7,-177.3 182.7,-168.8 204.3,-168.8 204.3,-177.3 216.1,-177.3 216.1,-166.8 226.7,-166.8 226.7,-177.3 
		238.5,-177.3 238.5,-168.8 272.7,-168.8 272.7,-143.1 264.2,-143.1 264.2,-130.2 251.1,-130.2 251.1,-135.1 243.8,-135.1 
		243.8,-130.2 236.4,-130.2 236.4,-121.8 243.8,-121.8 243.8,-116.9 251.1,-116.9 251.1,-121.8 264.2,-121.8 264.2,-108.9 
		272.7,-108.9 272.7,-87.3 264.2,-87.3 264.2,-65.7 272.7,-65.7 272.7,-44.1 264.2,-44.1 264.2,-22.5 272.7,-22.5 272.7,-0.9 
		264.2,-0.9 264.2,20.7 272.7,20.7 272.7,42.3 264.2,42.3 264.2,55.2 251.1,55.2 251.1,50.3 243.8,50.3 243.8,55.2 236.4,55.2 
		236.4,63.6 243.8,63.6 243.8,68.5 251.1,68.5 251.1,63.6 264.2,63.6 264.2,76.5 272.7,76.5 272.7,102.2 238.5,102.2 238.5,110.7 
		226.7,110.7 226.7,100.2 216.1,100.2 216.1,110.7 204.3,110.7 204.3,102.2 182.7,102.2 182.7,110.7 161.1,110.7 161.1,102.2 
		139.5,102.2 139.5,110.7 117.9,110.7 117.9,102.2 96.3,102.2 96.3,110.7 74.7,110.7 74.7,102.2 53.1,102.2 53.1,110.7 41.3,110.7 
		41.3,100.2 30.7,100.2 30.7,110.7 18.9,110.7 18.9,102.2 -15.3,102.2 -15.3,76.5 -6.8,76.5 -6.8,63.6 6.3,63.6 6.3,68.5 13.6,68.5 
		13.6,63.6 21,63.6 21,55.2 13.6,55.2 13.6,50.3 6.3,50.3 6.3,55.2 -6.8,55.2 -6.8,42.3 -15.3,42.3 -15.3,20.7 -6.8,20.7 -6.8,-0.9 
		-15.3,-0.9 -15.3,-22.5 -6.8,-22.5 -6.8,-44.1 -15.3,-44.1 -15.3,-65.7 -6.8,-65.7 -6.8,-87.3 -15.3,-87.3 -15.3,-108.9 
		-6.8,-108.9 -6.8,-121.8 6.3,-121.8 6.3,-116.9 13.6,-116.9 13.6,-121.8 21,-121.8 21,-130.2 13.6,-130.2 13.6,-135.1 6.3,-135.1 
		6.3,-130.2 -6.8,-130.2 -6.8,-143.1 -15.3,-143.1 	"/>
</g>
<line class="st0" x1="41.4" y1="7.2" x2="261" y2="7.2"/>
<line class="st0" x1="303.7" y1="7.2" x2="574.7" y2="7.2"/>
<circle class="st0" cx="151.2" cy="799.2" r="93.6"/>
<text transform="matrix(1 0 0 1 42.5584 59.1066)" class="st1 st2 st3">t o p p i n g s</text>
<text transform="matrix(1 0 0 1 352.0125 59.1066)"><tspan x="0" y="0" class="st1 st2 st3">y o g u r t</tspan><tspan x="0" y="43.2" class="st1 st2 st3">p a r f a i t</tspan><tspan x="0" y="86.4" class="st1 st2 st3">m a k e r </tspan></text>
<g id="XMLID_186_">
	<path id="XMLID_878_" class="st4" d="M1670.4,549.8c-13.8,0-36.8-1.9-37.5-14.8l-18.2-117.9c-0.3-1.8,0.2-3.7,1.4-5.1
		c1.2-1.4,3-2.2,4.8-2.2h98.9c1.8,0,3.6,0.8,4.8,2.2c1.2,1.4,1.7,3.3,1.4,5.1L1707.9,535C1707.2,547.8,1684.2,549.8,1670.4,549.8z
		 M1645.4,533.1c2.3,1.5,11,4,25,4c14,0,22.7-2.4,25-4l17.1-110.6h-84.1L1645.4,533.1z"/>
</g>
<g id="XMLID_188_">
	<path id="XMLID_875_" class="st4" d="M1721.6,422.5h-102.4c-9.7,0-18.1-7.3-19.4-16.9l-5.5-40c-0.2-1.8,0.3-3.6,1.5-5
		c1.2-1.4,2.9-2.2,4.8-2.2h139.7c1.8,0,3.6,0.8,4.8,2.2c1.2,1.4,1.7,3.2,1.5,5l-5.5,40C1739.7,415.2,1731.4,422.5,1721.6,422.5z
		 M1607.8,371.1l4.5,32.8c0.5,3.4,3.4,6,6.9,6h102.4c3.4,0,6.4-2.6,6.9-6l4.5-32.8H1607.8z"/>
</g>
<path id="XMLID_874_" class="st4" d="M1761.1,322.1c0,26.1-15.2,45.7-15.9,46.5l-9.9-7.8l5,3.9l-5-3.9c0.1-0.2,13.2-17.2,13.2-38.7
	c0-20.4-11.5-29.5-12-29.9c-1.6-1.2-2.5-3.1-2.5-5.1c0-0.3,0.1-31.3-21.4-42.7c-2.2-1.2-3.5-3.5-3.3-6c0.1-1.4,1.6-35.2-35.5-44.5
	c-26.9-6.7-42.3,5-49,12.5c3.4,2,7.1,4.8,9.5,8.3c7.1,8.9,16.1,29.7,0,46.3c-7.5,7.8-15.6,13.8-22.2,18.7
	c-5.7,4.3-12.9,9.6-13.2,12.1c-0.6,4.8,3.9,15.1,7.2,20.8c0.9,1.6,1.1,3.5,0.6,5.2c-0.6,1.7-1.9,3.1-3.5,3.8c0,0-8.8,4-11.8,13.3
	c-1.9,5.9,7.1,18.7,13.8,25.5l-9,8.9c-3.7-3.7-21.8-23-16.9-38.3c2.8-8.7,8.5-14.3,13-17.5c-3-6.1-6.8-15.7-6-23.2
	c0.9-7.9,8.6-13.6,18.2-20.7c6.5-4.8,13.8-10.3,20.6-17.3c12.6-13-0.3-29.1-0.9-29.7c-0.2-0.2-0.3-0.4-0.4-0.6
	c-2-3.1-8.3-6.2-10.8-7.1c-1.7-0.6-3.1-2-3.7-3.7c-0.6-1.7-0.5-3.6,0.4-5.2c0.2-0.4,5.2-9.4,16-16.7c9.9-6.7,26.8-13.5,51.3-7.4
	c24.8,6.2,35.7,21.5,40.6,33.3c3.4,8.2,4.3,15.8,4.5,20.3c21,13.6,24.2,40.1,24.7,49.1C1751.3,289,1761.1,301.1,1761.1,322.1"/>
<g id="XMLID_198_">
	<path id="XMLID_873_" class="st4" d="M1682.5,326.9c-2.5,0-4.8-1.5-5.8-3.9c-1.3-3.2,0.2-6.9,3.4-8.3c0.3-0.1,34.7-14.4,56.1-32.4
		c2.7-2.2,6.7-1.9,8.9,0.8c2.2,2.7,1.9,6.7-0.8,8.9c-23,19.2-57.9,33.7-59.4,34.4C1684.1,326.7,1683.3,326.9,1682.5,326.9z"/>
</g>
<g id="XMLID_199_">
	<path id="XMLID_872_" class="st4" d="M1600.6,322c-2.8,0-5.3-1.8-6.1-4.6c-1-3.4,1-6.9,4.3-7.8l0,0c0.4-0.1,37.5-11,66.5-39
		c2.5-2.4,6.5-2.4,8.9,0.2c2.4,2.5,2.4,6.5-0.2,8.9c-31.4,30.3-70.2,41.6-71.8,42C1601.7,321.9,1601.1,322,1600.6,322z"/>
</g>
<g id="XMLID_256_">
	<path id="XMLID_871_" class="st4" d="M1689.3,264.8c-2.1,0-4.1-1-5.3-2.9c-1.9-2.9-1.1-6.9,1.9-8.7c8.4-5.4,21.6-15.1,24.4-19.6
		c1.8-3,5.7-3.9,8.7-2c3,1.8,3.9,5.7,2,8.7c-5.3,8.5-24.5,21.2-28.3,23.6C1691.6,264.5,1690.4,264.8,1689.3,264.8z"/>
</g>
<g id="XMLID_12_">
	<path id="XMLID_13_" class="st5" d="M2966.4,549.8c-13.8,0-36.8-1.9-37.5-14.8l-18.2-117.9c-0.3-1.8,0.2-3.7,1.4-5.1
		c1.2-1.4,3-2.2,4.8-2.2h98.9c1.8,0,3.6,0.8,4.8,2.2c1.2,1.4,1.7,3.3,1.4,5.1L3003.9,535C3003.2,547.8,2980.2,549.8,2966.4,549.8z
		 M2941.4,533.1c2.3,1.5,11,4,25,4s22.7-2.4,25-4l17.1-110.6h-84.1L2941.4,533.1z"/>
</g>
<g id="XMLID_8_">
	<path id="XMLID_9_" class="st5" d="M3017.6,422.5h-102.4c-9.7,0-18.1-7.3-19.4-16.9l-5.5-40c-0.2-1.8,0.3-3.6,1.5-5
		c1.2-1.4,2.9-2.2,4.8-2.2h139.7c1.8,0,3.6,0.8,4.8,2.2c1.2,1.4,1.7,3.2,1.5,5l-5.5,40C3035.7,415.2,3027.4,422.5,3017.6,422.5z
		 M2903.8,371.1l4.5,32.8c0.5,3.4,3.4,6,6.9,6h102.4c3.4,0,6.4-2.6,6.9-6l4.5-32.8H2903.8z"/>
</g>
<path id="XMLID_7_" class="st5" d="M3057.1,322.1c0,26.1-15.2,45.7-15.9,46.5l-9.9-7.8l5,3.9l-5-3.9c0.1-0.2,13.2-17.2,13.2-38.7
	c0-20.4-11.5-29.5-12-29.9c-1.6-1.2-2.5-3.1-2.5-5.1c0-0.3,0.1-31.3-21.4-42.7c-2.2-1.2-3.5-3.5-3.3-6c0.1-1.4,1.6-35.2-35.5-44.5
	c-26.9-6.7-42.3,5-49,12.5c3.4,2,7.1,4.8,9.5,8.3c7.1,8.9,16.1,29.7,0,46.3c-7.5,7.8-15.6,13.8-22.2,18.7
	c-5.7,4.3-12.9,9.6-13.2,12.1c-0.6,4.8,3.9,15.1,7.2,20.8c0.9,1.6,1.1,3.5,0.6,5.2c-0.6,1.7-1.9,3.1-3.5,3.8c0,0-8.8,4-11.8,13.3
	c-1.9,5.9,7.1,18.7,13.8,25.5l-9,8.9c-3.7-3.7-21.8-23-16.9-38.3c2.8-8.7,8.5-14.3,13-17.5c-3-6.1-6.8-15.7-6-23.2
	c0.9-7.9,8.6-13.6,18.2-20.7c6.5-4.8,13.8-10.3,20.6-17.3c12.6-13-0.3-29.1-0.9-29.7c-0.2-0.2-0.3-0.4-0.4-0.6
	c-2-3.1-8.2-6.2-10.8-7.1c-1.7-0.6-3.1-2-3.7-3.7c-0.6-1.7-0.5-3.6,0.4-5.2c0.2-0.4,5.2-9.4,16-16.7c9.9-6.7,26.8-13.5,51.3-7.4
	c24.8,6.2,35.7,21.5,40.6,33.3c3.4,8.2,4.3,15.8,4.5,20.3c21,13.6,24.2,40.1,24.7,49.1C3047.3,289,3057.1,301.1,3057.1,322.1"/>
<g id="XMLID_5_">
	<path id="XMLID_6_" class="st5" d="M2978.5,326.9c-2.5,0-4.8-1.5-5.8-3.9c-1.3-3.2,0.2-6.9,3.4-8.3c0.3-0.1,34.7-14.4,56.1-32.4
		c2.7-2.2,6.7-1.9,8.9,0.8c2.2,2.7,1.9,6.7-0.8,8.9c-23,19.2-57.9,33.7-59.4,34.4C2980.1,326.7,2979.3,326.9,2978.5,326.9z"/>
</g>
<g id="XMLID_3_">
	<path id="XMLID_4_" class="st5" d="M2896.6,322c-2.8,0-5.3-1.8-6.1-4.6c-1-3.4,1-6.9,4.3-7.8l0,0c0.4-0.1,37.5-11,66.5-39
		c2.5-2.4,6.5-2.4,8.9,0.2c2.4,2.5,2.4,6.5-0.2,8.9c-31.4,30.3-70.2,41.6-71.8,42C2897.7,321.9,2897.1,322,2896.6,322z"/>
</g>
<g id="XMLID_1_">
	<path id="XMLID_2_" class="st5" d="M2985.3,264.8c-2.1,0-4.1-1-5.3-2.9c-1.9-2.9-1.1-6.9,1.9-8.7c8.4-5.4,21.6-15.1,24.4-19.6
		c1.8-3,5.7-3.9,8.7-2c3,1.8,3.9,5.7,2,8.7c-5.3,8.5-24.5,21.2-28.3,23.6C2987.6,264.5,2986.4,264.8,2985.3,264.8z"/>
</g>
<g id="XMLID_27_">
	<path id="XMLID_28_" class="st4" d="M439.9,549.8c-13.8,0-36.8-1.9-37.5-14.8l-18.2-117.9c-0.3-1.8,0.2-3.7,1.4-5.1
		c1.2-1.4,3-2.2,4.8-2.2h98.9c1.8,0,3.6,0.8,4.8,2.2c1.2,1.4,1.7,3.3,1.4,5.1L477.4,535C476.7,547.8,453.7,549.8,439.9,549.8z
		 M414.9,533.1c2.3,1.5,11,4,25,4s22.7-2.4,25-4l17.1-110.6h-84.1L414.9,533.1z"/>
</g>
<g id="XMLID_23_">
	<path id="XMLID_24_" class="st4" d="M491.1,422.5H388.7c-9.7,0-18.1-7.3-19.4-16.9l-5.5-40c-0.2-1.8,0.3-3.6,1.5-5
		c1.2-1.4,2.9-2.2,4.8-2.2h139.7c1.8,0,3.6,0.8,4.8,2.2c1.2,1.4,1.7,3.2,1.5,5l-5.5,40C509.2,415.2,500.8,422.5,491.1,422.5z
		 M377.3,371.1l4.5,32.8c0.5,3.4,3.4,6,6.9,6h102.4c3.4,0,6.4-2.6,6.9-6l4.5-32.8H377.3z"/>
</g>
<path id="XMLID_22_" class="st4" d="M530.6,322.1c0,26.1-15.2,45.7-15.9,46.5l-9.9-7.8l5,3.9l-5-3.9c0.1-0.2,13.2-17.2,13.2-38.7
	c0-20.4-11.5-29.5-12-29.9c-1.6-1.2-2.5-3.1-2.5-5.1c0-0.3,0.1-31.3-21.4-42.7c-2.2-1.2-3.5-3.5-3.3-6c0.1-1.4,1.6-35.2-35.5-44.5
	c-26.9-6.7-42.3,5-49,12.5c3.4,2,7.1,4.8,9.5,8.3c7.1,8.9,16.1,29.7,0,46.3c-7.5,7.8-15.6,13.8-22.2,18.7
	c-5.7,4.3-12.9,9.6-13.2,12.1c-0.6,4.8,3.9,15.1,7.2,20.8c0.9,1.6,1.1,3.5,0.6,5.2c-0.6,1.7-1.9,3.1-3.5,3.8c0,0-8.8,4-11.8,13.3
	c-1.9,5.9,7.1,18.7,13.8,25.5l-9,8.9c-3.7-3.7-21.8-23-16.9-38.3c2.8-8.7,8.5-14.3,13-17.5c-3-6.1-6.8-15.7-6-23.2
	c0.9-7.9,8.6-13.6,18.2-20.7c6.5-4.8,13.8-10.3,20.6-17.3c12.6-13-0.3-29.1-0.9-29.7c-0.2-0.2-0.3-0.4-0.4-0.6
	c-2-3.1-8.3-6.2-10.8-7.1c-1.7-0.6-3.1-2-3.7-3.7c-0.6-1.7-0.5-3.6,0.4-5.2c0.2-0.4,5.2-9.4,16-16.7c9.9-6.7,26.8-13.5,51.3-7.4
	c24.8,6.2,35.7,21.5,40.6,33.3c3.4,8.2,4.3,15.8,4.5,20.3c21,13.6,24.2,40.1,24.7,49.1C520.7,289,530.6,301.1,530.6,322.1"/>
<g id="XMLID_20_">
	<path id="XMLID_21_" class="st4" d="M452,326.9c-2.5,0-4.8-1.5-5.8-3.9c-1.3-3.2,0.2-6.9,3.4-8.3c0.3-0.1,34.7-14.4,56.1-32.4
		c2.7-2.2,6.7-1.9,8.9,0.8c2.2,2.7,1.9,6.7-0.8,8.9c-23,19.2-57.9,33.7-59.4,34.4C453.6,326.7,452.8,326.9,452,326.9z"/>
</g>
<g id="XMLID_18_">
	<path id="XMLID_19_" class="st4" d="M370,322c-2.8,0-5.3-1.8-6.1-4.6c-1-3.4,1-6.9,4.3-7.8l0,0c0.4-0.1,37.5-11,66.5-39
		c2.5-2.4,6.5-2.4,8.9,0.2c2.4,2.5,2.4,6.5-0.2,8.9c-31.4,30.3-70.2,41.6-71.8,42C371.2,321.9,370.6,322,370,322z"/>
</g>
<g id="XMLID_16_">
	<path id="XMLID_17_" class="st4" d="M458.7,264.8c-2.1,0-4.1-1-5.3-2.9c-1.9-2.9-1.1-6.9,1.9-8.7c8.4-5.4,21.6-15.1,24.4-19.6
		c1.8-3,5.7-3.9,8.7-2c3,1.8,3.9,5.7,2,8.7c-5.3,8.5-24.5,21.2-28.3,23.6C461.1,264.5,459.9,264.8,458.7,264.8z"/>
</g>
</svg>
