<?xml version="1.0" encoding="utf-8"?>
<!-- Generator: Adobe Illustrator 22.1.0, SVG Export Plug-In . SVG Version: 6.00 Build 0)  -->
<svg version="1.1" id="Layer_1" xmlns="http://www.w3.org/2000/svg" xmlns:xlink="http://www.w3.org/1999/xlink" x="0px" y="0px"
	 viewBox="0 0 900 1620" style="enable-background:new 0 0 900 1620;" xml:space="preserve">
<style type="text/css">
	.st0{fill:none;stroke:#FF0000;stroke-width:1.000000e-03;}
</style>
<g id="Layer_1_1_">
	<g transform="translate(22.5, 22.5) ">
		<polyline class="st0" points="240.3,-16.5 266,-16.5 266,14.1 274.5,14.1 274.5,24.1 264,24.1 264,34.7 274.5,34.7 274.5,44.7 
			266,44.7 266,66.3 274.5,66.3 274.5,87.9 266,87.9 266,109.5 274.5,109.5 274.5,131.1 266,131.1 266,152.7 274.5,152.7 
			274.5,174.3 266,174.3 266,195.9 274.5,195.9 274.5,217.5 266,217.5 266,239.1 274.5,239.1 274.5,260.7 266,260.7 266,282.3 
			274.5,282.3 274.5,303.9 266,303.9 266,325.5 274.5,325.5 274.5,347.1 266,347.1 266,368.7 274.5,368.7 274.5,390.3 266,390.3 
			266,411.9 274.5,411.9 274.5,433.5 266,433.5 266,455.1 274.5,455.1 274.5,476.7 266,476.7 266,498.3 274.5,498.3 274.5,519.9 
			266,519.9 266,541.5 274.5,541.5 274.5,563.1 266,563.1 266,584.7 274.5,584.7 274.5,606.3 266,606.3 266,627.9 274.5,627.9 
			274.5,649.5 266,649.5 266,671.1 274.5,671.1 274.5,692.7 266,692.7 266,714.3 274.5,714.3 274.5,724.3 264,724.3 264,734.9 
			274.5,734.9 274.5,744.9 266,744.9 266,775.5 240.3,775.5 240.3,767 227.4,767 227.4,753.9 232.3,753.9 232.3,746.6 227.4,746.6 
			227.4,739.2 219,739.2 219,746.6 214.1,746.6 214.1,753.9 219,753.9 219,767 206.1,767 206.1,775.5 184.5,775.5 184.5,767 
			162.9,767 162.9,775.5 141.3,775.5 141.3,767 119.7,767 119.7,775.5 98.1,775.5 98.1,767 76.5,767 76.5,775.5 54.9,775.5 
			54.9,767 42,767 42,753.9 46.9,753.9 46.9,746.6 42,746.6 42,739.2 33.6,739.2 33.6,746.6 28.7,746.6 28.7,753.9 33.6,753.9 
			33.6,767 20.7,767 20.7,775.5 -5,775.5 -5,744.9 -13.5,744.9 -13.5,734.9 -3,734.9 -3,724.3 -13.5,724.3 -13.5,714.3 -5,714.3 
			-5,692.7 -13.5,692.7 -13.5,671.1 -5,671.1 -5,649.5 -13.5,649.5 -13.5,627.9 -5,627.9 -5,606.3 -13.5,606.3 -13.5,584.7 
			-5,584.7 -5,563.1 -13.5,563.1 -13.5,541.5 -5,541.5 -5,519.9 -13.5,519.9 -13.5,498.3 -5,498.3 -5,476.7 -13.5,476.7 
			-13.5,455.1 -5,455.1 -5,433.5 -13.5,433.5 -13.5,411.9 -5,411.9 -5,390.3 -13.5,390.3 -13.5,368.7 -5,368.7 -5,347.1 
			-13.5,347.1 -13.5,325.5 -5,325.5 -5,303.9 -13.5,303.9 -13.5,282.3 -5,282.3 -5,260.7 -13.5,260.7 -13.5,239.1 -5,239.1 
			-5,217.5 -13.5,217.5 -13.5,195.9 -5,195.9 -5,174.3 -13.5,174.3 -13.5,152.7 -5,152.7 -5,131.1 -13.5,131.1 -13.5,109.5 
			-5,109.5 -5,87.9 -13.5,87.9 -13.5,66.3 -5,66.3 -5,44.7 -13.5,44.7 -13.5,34.7 -3,34.7 -3,24.1 -13.5,24.1 -13.5,14.1 -5,14.1 
			-5,-16.5 20.7,-16.5 		"/>
	</g>
	<g transform="translate(382.5, 22.5) ">
		<polyline class="st0" points="168.3,-16.5 194,-16.5 194,14.1 202.5,14.1 202.5,24.1 192,24.1 192,34.7 202.5,34.7 202.5,44.7 
			194,44.7 194,66.3 202.5,66.3 202.5,87.9 194,87.9 194,109.5 202.5,109.5 202.5,131.1 194,131.1 194,152.7 202.5,152.7 
			202.5,174.3 194,174.3 194,195.9 202.5,195.9 202.5,217.5 194,217.5 194,239.1 202.5,239.1 202.5,260.7 194,260.7 194,282.3 
			202.5,282.3 202.5,303.9 194,303.9 194,325.5 202.5,325.5 202.5,347.1 194,347.1 194,368.7 202.5,368.7 202.5,390.3 194,390.3 
			194,411.9 202.5,411.9 202.5,433.5 194,433.5 194,455.1 202.5,455.1 202.5,476.7 194,476.7 194,498.3 202.5,498.3 202.5,519.9 
			194,519.9 194,541.5 202.5,541.5 202.5,563.1 194,563.1 194,584.7 202.5,584.7 202.5,606.3 194,606.3 194,627.9 202.5,627.9 
			202.5,649.5 194,649.5 194,671.1 202.5,671.1 202.5,692.7 194,692.7 194,714.3 202.5,714.3 202.5,724.3 192,724.3 192,734.9 
			202.5,734.9 202.5,744.9 194,744.9 194,775.5 168.3,775.5 168.3,767 155.4,767 155.4,753.9 160.3,753.9 160.3,746.6 155.4,746.6 
			155.4,739.2 147,739.2 147,746.6 142.1,746.6 142.1,753.9 147,753.9 147,767 134.1,767 134.1,775.5 112.5,775.5 112.5,767 
			90.9,767 90.9,775.5 69.3,775.5 69.3,767 47.7,767 47.7,775.5 26.1,775.5 26.1,767 4.5,767 4.5,775.5 -17.1,775.5 -17.1,767 
			-30,767 -30,753.9 -25.1,753.9 -25.1,746.6 -30,746.6 -30,739.2 -38.4,739.2 -38.4,746.6 -43.3,746.6 -43.3,753.9 -38.4,753.9 
			-38.4,767 -51.3,767 -51.3,775.5 -77,775.5 -77,744.9 -85.5,744.9 -85.5,734.9 -75,734.9 -75,724.3 -85.5,724.3 -85.5,714.3 
			-77,714.3 -77,692.7 -85.5,692.7 -85.5,671.1 -77,671.1 -77,649.5 -85.5,649.5 -85.5,627.9 -77,627.9 -77,606.3 -85.5,606.3 
			-85.5,584.7 -77,584.7 -77,563.1 -85.5,563.1 -85.5,541.5 -77,541.5 -77,519.9 -85.5,519.9 -85.5,498.3 -77,498.3 -77,476.7 
			-85.5,476.7 -85.5,455.1 -77,455.1 -77,433.5 -85.5,433.5 -85.5,411.9 -77,411.9 -77,390.3 -85.5,390.3 -85.5,368.7 -77,368.7 
			-77,347.1 -85.5,347.1 -85.5,325.5 -77,325.5 -77,303.9 -85.5,303.9 -85.5,282.3 -77,282.3 -77,260.7 -85.5,260.7 -85.5,239.1 
			-77,239.1 -77,217.5 -85.5,217.5 -85.5,195.9 -77,195.9 -77,174.3 -85.5,174.3 -85.5,152.7 -77,152.7 -77,131.1 -85.5,131.1 
			-85.5,109.5 -77,109.5 -77,87.9 -85.5,87.9 -85.5,66.3 -77,66.3 -77,44.7 -85.5,44.7 -85.5,34.7 -75,34.7 -75,24.1 -85.5,24.1 
			-85.5,14.1 -77,14.1 -77,-16.5 -51.3,-16.5 		"/>
		<path class="st0" d="M26.1-16.5"/>
		<path class="st0" d="M4.5-16.5"/>
		<path class="st0" d="M-30-8"/>
		<path class="st0" d="M-43.3,12.4"/>
		<path class="st0" d="M-38.4-8"/>
	</g>
	<g transform="translate(742.5, 22.5) ">
		<polyline class="st0" points="130.5,-8 130.5,14.1 122,14.1 122,25.2 108.9,25.2 108.9,20.3 101.6,20.3 101.6,25.2 94.2,25.2 
			94.2,33.6 101.6,33.6 101.6,38.5 108.9,38.5 108.9,33.6 122,33.6 122,44.7 130.5,44.7 130.5,66.3 122,66.3 122,87.9 130.5,87.9 
			130.5,109.5 122,109.5 122,131.1 130.5,131.1 130.5,152.7 122,152.7 122,174.3 130.5,174.3 130.5,195.9 122,195.9 122,217.5 
			130.5,217.5 130.5,239.1 122,239.1 122,260.7 130.5,260.7 130.5,282.3 122,282.3 122,303.9 130.5,303.9 130.5,325.5 122,325.5 
			122,347.1 130.5,347.1 130.5,368.7 122,368.7 122,390.3 130.5,390.3 130.5,411.9 122,411.9 122,433.5 130.5,433.5 130.5,455.1 
			122,455.1 122,476.7 130.5,476.7 130.5,498.3 122,498.3 122,519.9 130.5,519.9 130.5,541.5 122,541.5 122,563.1 130.5,563.1 
			130.5,584.7 122,584.7 122,606.3 130.5,606.3 130.5,627.9 122,627.9 122,649.5 130.5,649.5 130.5,671.1 122,671.1 122,692.7 
			130.5,692.7 130.5,714.3 122,714.3 122,725.4 108.9,725.4 108.9,720.5 101.6,720.5 101.6,725.4 94.2,725.4 94.2,733.8 
			101.6,733.8 101.6,738.7 108.9,738.7 108.9,733.8 122,733.8 122,744.9 130.5,744.9 130.5,767 96.3,767 96.3,775.5 84.5,775.5 
			84.5,765 73.9,765 73.9,775.5 62.1,775.5 62.1,767 40.5,767 40.5,775.5 18.9,775.5 18.9,767 -2.7,767 -2.7,775.5 -24.3,775.5 
			-24.3,767 -45.9,767 -45.9,775.5 -67.5,775.5 -67.5,767 -89.1,767 -89.1,775.5 -100.9,775.5 -100.9,765 -111.5,765 -111.5,775.5 
			-123.3,775.5 -123.3,767 -157.5,767 -157.5,744.9 -149,744.9 -149,733.8 -135.9,733.8 -135.9,738.7 -128.6,738.7 -128.6,733.8 
			-121.2,733.8 -121.2,725.4 -128.6,725.4 -128.6,720.5 -135.9,720.5 -135.9,725.4 -149,725.4 -149,714.3 -157.5,714.3 
			-157.5,692.7 -149,692.7 -149,671.1 -157.5,671.1 -157.5,649.5 -149,649.5 -149,627.9 -157.5,627.9 -157.5,606.3 -149,606.3 
			-149,584.7 -157.5,584.7 -157.5,563.1 -149,563.1 -149,541.5 -157.5,541.5 -157.5,519.9 -149,519.9 -149,498.3 -157.5,498.3 
			-157.5,476.7 -149,476.7 -149,455.1 -157.5,455.1 -157.5,433.5 -149,433.5 -149,411.9 -157.5,411.9 -157.5,390.3 -149,390.3 
			-149,368.7 -157.5,368.7 -157.5,347.1 -149,347.1 -149,325.5 -157.5,325.5 -157.5,303.9 -149,303.9 -149,282.3 -157.5,282.3 
			-157.5,260.7 -149,260.7 -149,239.1 -157.5,239.1 -157.5,217.5 -149,217.5 -149,195.9 -157.5,195.9 -157.5,174.3 -149,174.3 
			-149,152.7 -157.5,152.7 -157.5,131.1 -149,131.1 -149,109.5 -157.5,109.5 -157.5,87.9 -149,87.9 -149,66.3 -157.5,66.3 
			-157.5,44.7 -149,44.7 -149,33.6 -135.9,33.6 -135.9,38.5 -128.6,38.5 -128.6,33.6 -121.2,33.6 -121.2,25.2 -128.6,25.2 
			-128.6,20.3 -135.9,20.3 -135.9,25.2 -149,25.2 -149,14.1 -157.5,14.1 -157.5,-8 		"/>
	</g>
	<g transform="translate(742.5, 1012.5) ">
		<line class="st0" x1="84.5" y1="-214.5" x2="96.3" y2="-214.5"/>
		<line class="st0" x1="62.1" y1="-214.5" x2="73.9" y2="-214.5"/>
		<line class="st0" x1="18.9" y1="-214.5" x2="40.5" y2="-214.5"/>
		<line class="st0" x1="-24.3" y1="-214.5" x2="-2.7" y2="-214.5"/>
		<line class="st0" x1="-67.5" y1="-214.5" x2="-45.9" y2="-214.5"/>
		<line class="st0" x1="-100.9" y1="-214.5" x2="-89.1" y2="-214.5"/>
		<line class="st0" x1="-123.3" y1="-214.5" x2="-111.5" y2="-214.5"/>
	</g>
	<path class="st0" d="M17.5,6"/>
	<line class="st0" x1="43.2" y1="6" x2="550.8" y2="6"/>
	<line class="st0" x1="585" y1="6" x2="585" y2="6"/>
	<line class="st0" x1="585" y1="6" x2="585" y2="14.5"/>
	<line class="st0" x1="585" y1="6" x2="873" y2="6"/>
	<line class="st0" x1="873" y1="14.5" x2="873" y2="6"/>
	<path class="st0" d="M873,798"/>
	<path class="st0" d="M873,798"/>
</g>
</svg>
