<?xml version="1.0" encoding="utf-8"?>
<!-- Generator: Adobe Illustrator 22.1.0, SVG Export Plug-In . SVG Version: 6.00 Build 0)  -->
<svg version="1.1" id="Layer_1" xmlns="http://www.w3.org/2000/svg" xmlns:xlink="http://www.w3.org/1999/xlink" x="0px" y="0px"
	 width="900px" height="1332px" viewBox="0 0 900 1332" style="enable-background:new 0 0 900 1332;" xml:space="preserve">
<style type="text/css">
	.st0{fill:none;stroke:#FF0000;stroke-width:1.000000e-03;}
</style>
<g transform="translate(742.5, 832.5) ">
	<polyline class="st0" points="-450.9,-820.4 -450.9,-801.9 -459.4,-801.9 -459.4,-792.6 -472.5,-792.6 -472.5,-797.5 
		-479.8,-797.5 -479.8,-792.6 -487.2,-792.6 -487.2,-784.2 -479.8,-784.2 -479.8,-779.3 -472.5,-779.3 -472.5,-784.2 -459.4,-784.2 
		-459.4,-774.9 -450.9,-774.9 -450.9,-753.3 -459.4,-753.3 -459.4,-731.7 -450.9,-731.7 -450.9,-710.1 -459.4,-710.1 -459.4,-688.5 
		-450.9,-688.5 -450.9,-666.9 -459.4,-666.9 -459.4,-645.3 -450.9,-645.3 -450.9,-623.7 -459.4,-623.7 -459.4,-602.1 -450.9,-602.1 
		-450.9,-580.5 -459.4,-580.5 -459.4,-558.9 -450.9,-558.9 -450.9,-537.3 -459.4,-537.3 -459.4,-515.7 -450.9,-515.7 -450.9,-494.1 
		-459.4,-494.1 -459.4,-472.5 -450.9,-472.5 -450.9,-450.9 -459.4,-450.9 -459.4,-429.3 -450.9,-429.3 -450.9,-407.7 -459.4,-407.7 
		-459.4,-386.1 -450.9,-386.1 -450.9,-364.5 -459.4,-364.5 -459.4,-342.9 -450.9,-342.9 -450.9,-321.3 -459.4,-321.3 -459.4,-299.7 
		-450.9,-299.7 -450.9,-278.1 -459.4,-278.1 -459.4,-256.5 -450.9,-256.5 -450.9,-234.9 -459.4,-234.9 -459.4,-225.6 -472.5,-225.6 
		-472.5,-230.5 -479.8,-230.5 -479.8,-225.6 -487.2,-225.6 -487.2,-217.2 -479.8,-217.2 -479.8,-212.3 -472.5,-212.3 -472.5,-217.2 
		-459.4,-217.2 -459.4,-207.9 -450.9,-207.9 -450.9,-189.4 -485.1,-189.4 -485.1,-180.9 -496.9,-180.9 -496.9,-191.4 -507.5,-191.4 
		-507.5,-180.9 -519.3,-180.9 -519.3,-189.4 -540.9,-189.4 -540.9,-180.9 -562.5,-180.9 -562.5,-189.4 -584.1,-189.4 -584.1,-180.9 
		-605.7,-180.9 -605.7,-189.4 -627.3,-189.4 -627.3,-180.9 -648.9,-180.9 -648.9,-189.4 -670.5,-189.4 -670.5,-180.9 -682.3,-180.9 
		-682.3,-191.4 -692.9,-191.4 -692.9,-180.9 -704.7,-180.9 -704.7,-189.4 -738.9,-189.4 -738.9,-207.9 -730.4,-207.9 -730.4,-217.2 
		-717.3,-217.2 -717.3,-212.3 -710,-212.3 -710,-217.2 -702.6,-217.2 -702.6,-225.6 -710,-225.6 -710,-230.5 -717.3,-230.5 
		-717.3,-225.6 -730.4,-225.6 -730.4,-234.9 -738.9,-234.9 -738.9,-256.5 -730.4,-256.5 -730.4,-278.1 -738.9,-278.1 -738.9,-299.7 
		-730.4,-299.7 -730.4,-321.3 -738.9,-321.3 -738.9,-342.9 -730.4,-342.9 -730.4,-364.5 -738.9,-364.5 -738.9,-386.1 -730.4,-386.1 
		-730.4,-407.7 -738.9,-407.7 -738.9,-429.3 -730.4,-429.3 -730.4,-450.9 -738.9,-450.9 -738.9,-472.5 -730.4,-472.5 -730.4,-494.1 
		-738.9,-494.1 -738.9,-515.7 -730.4,-515.7 -730.4,-537.3 -738.9,-537.3 -738.9,-558.9 -730.4,-558.9 -730.4,-580.5 -738.9,-580.5 
		-738.9,-602.1 -730.4,-602.1 -730.4,-623.7 -738.9,-623.7 -738.9,-645.3 -730.4,-645.3 -730.4,-666.9 -738.9,-666.9 -738.9,-688.5 
		-730.4,-688.5 -730.4,-710.1 -738.9,-710.1 -738.9,-731.7 -730.4,-731.7 -730.4,-753.3 -738.9,-753.3 -738.9,-774.9 -730.4,-774.9 
		-730.4,-784.2 -717.3,-784.2 -717.3,-779.3 -710,-779.3 -710,-784.2 -702.6,-784.2 -702.6,-792.6 -710,-792.6 -710,-797.5 
		-717.3,-797.5 -717.3,-792.6 -730.4,-792.6 -730.4,-801.9 -738.9,-801.9 -738.9,-820.4 	"/>
	<line class="st0" x1="-496.9" y1="-828.9" x2="-485.1" y2="-828.9"/>
	<line class="st0" x1="-519.3" y1="-828.9" x2="-507.5" y2="-828.9"/>
	<line class="st0" x1="-562.5" y1="-828.9" x2="-540.9" y2="-828.9"/>
	<line class="st0" x1="-605.7" y1="-828.9" x2="-584.1" y2="-828.9"/>
	<line class="st0" x1="-648.9" y1="-828.9" x2="-627.3" y2="-828.9"/>
	<line class="st0" x1="-682.3" y1="-828.9" x2="-670.5" y2="-828.9"/>
	<line class="st0" x1="-704.7" y1="-828.9" x2="-692.9" y2="-828.9"/>
</g>
<line class="st0" x1="3.6" y1="3.6" x2="291.6" y2="3.6"/>
<line class="st0" x1="3.6" y1="3.6" x2="3.6" y2="12.1"/>
<line class="st0" x1="291.6" y1="3.6" x2="291.6" y2="12.1"/>
<g transform="translate(742.5, 832.5) ">
	<polyline class="st0" points="-160.9,-820.4 -160.9,-801.9 -169.4,-801.9 -169.4,-792.6 -182.5,-792.6 -182.5,-797.5 
		-189.8,-797.5 -189.8,-792.6 -197.2,-792.6 -197.2,-784.2 -189.8,-784.2 -189.8,-779.3 -182.5,-779.3 -182.5,-784.2 -169.4,-784.2 
		-169.4,-774.9 -160.9,-774.9 -160.9,-753.3 -169.4,-753.3 -169.4,-731.7 -160.9,-731.7 -160.9,-710.1 -169.4,-710.1 -169.4,-688.5 
		-160.9,-688.5 -160.9,-666.9 -169.4,-666.9 -169.4,-645.3 -160.9,-645.3 -160.9,-623.7 -169.4,-623.7 -169.4,-602.1 -160.9,-602.1 
		-160.9,-580.5 -169.4,-580.5 -169.4,-558.9 -160.9,-558.9 -160.9,-537.3 -169.4,-537.3 -169.4,-515.7 -160.9,-515.7 -160.9,-494.1 
		-169.4,-494.1 -169.4,-472.5 -160.9,-472.5 -160.9,-450.9 -169.4,-450.9 -169.4,-429.3 -160.9,-429.3 -160.9,-407.7 -169.4,-407.7 
		-169.4,-386.1 -160.9,-386.1 -160.9,-364.5 -169.4,-364.5 -169.4,-342.9 -160.9,-342.9 -160.9,-321.3 -169.4,-321.3 -169.4,-299.7 
		-160.9,-299.7 -160.9,-278.1 -169.4,-278.1 -169.4,-256.5 -160.9,-256.5 -160.9,-234.9 -169.4,-234.9 -169.4,-225.6 -182.5,-225.6 
		-182.5,-230.5 -189.8,-230.5 -189.8,-225.6 -197.2,-225.6 -197.2,-217.2 -189.8,-217.2 -189.8,-212.3 -182.5,-212.3 -182.5,-217.2 
		-169.4,-217.2 -169.4,-207.9 -160.9,-207.9 -160.9,-189.4 -195.1,-189.4 -195.1,-180.9 -206.9,-180.9 -206.9,-191.4 -217.5,-191.4 
		-217.5,-180.9 -229.3,-180.9 -229.3,-189.4 -250.9,-189.4 -250.9,-180.9 -272.5,-180.9 -272.5,-189.4 -294.1,-189.4 -294.1,-180.9 
		-315.7,-180.9 -315.7,-189.4 -337.3,-189.4 -337.3,-180.9 -358.9,-180.9 -358.9,-189.4 -380.5,-189.4 -380.5,-180.9 -392.3,-180.9 
		-392.3,-191.4 -402.9,-191.4 -402.9,-180.9 -414.7,-180.9 -414.7,-189.4 -448.9,-189.4 -448.9,-207.9 -440.4,-207.9 -440.4,-217.2 
		-427.3,-217.2 -427.3,-212.3 -420,-212.3 -420,-217.2 -412.6,-217.2 -412.6,-225.6 -420,-225.6 -420,-230.5 -427.3,-230.5 
		-427.3,-225.6 -440.4,-225.6 -440.4,-234.9 -448.9,-234.9 -448.9,-256.5 -440.4,-256.5 -440.4,-278.1 -448.9,-278.1 -448.9,-299.7 
		-440.4,-299.7 -440.4,-321.3 -448.9,-321.3 -448.9,-342.9 -440.4,-342.9 -440.4,-364.5 -448.9,-364.5 -448.9,-386.1 -440.4,-386.1 
		-440.4,-407.7 -448.9,-407.7 -448.9,-429.3 -440.4,-429.3 -440.4,-450.9 -448.9,-450.9 -448.9,-472.5 -440.4,-472.5 -440.4,-494.1 
		-448.9,-494.1 -448.9,-515.7 -440.4,-515.7 -440.4,-537.3 -448.9,-537.3 -448.9,-558.9 -440.4,-558.9 -440.4,-580.5 -448.9,-580.5 
		-448.9,-602.1 -440.4,-602.1 -440.4,-623.7 -448.9,-623.7 -448.9,-645.3 -440.4,-645.3 -440.4,-666.9 -448.9,-666.9 -448.9,-688.5 
		-440.4,-688.5 -440.4,-710.1 -448.9,-710.1 -448.9,-731.7 -440.4,-731.7 -440.4,-753.3 -448.9,-753.3 -448.9,-774.9 -440.4,-774.9 
		-440.4,-784.2 -427.3,-784.2 -427.3,-779.3 -420,-779.3 -420,-784.2 -412.6,-784.2 -412.6,-792.6 -420,-792.6 -420,-797.5 
		-427.3,-797.5 -427.3,-792.6 -440.4,-792.6 -440.4,-801.9 -448.9,-801.9 -448.9,-820.4 	"/>
	<line class="st0" x1="-206.9" y1="-828.9" x2="-195.1" y2="-828.9"/>
	<line class="st0" x1="-229.3" y1="-828.9" x2="-217.5" y2="-828.9"/>
	<line class="st0" x1="-272.5" y1="-828.9" x2="-250.9" y2="-828.9"/>
	<line class="st0" x1="-315.7" y1="-828.9" x2="-294.1" y2="-828.9"/>
	<line class="st0" x1="-358.9" y1="-828.9" x2="-337.3" y2="-828.9"/>
	<line class="st0" x1="-392.3" y1="-828.9" x2="-380.5" y2="-828.9"/>
	<line class="st0" x1="-414.7" y1="-828.9" x2="-402.9" y2="-828.9"/>
</g>
<line class="st0" x1="293.6" y1="3.6" x2="581.6" y2="3.6"/>
<line class="st0" x1="293.6" y1="4.8" x2="293.6" y2="13.3"/>
<line class="st0" x1="581.6" y1="3.6" x2="581.6" y2="12.1"/>
</svg>
