0
SECTION
2
HEADER
9
$INSUNITS
70
4
9
$ACADVER
1
AC1014
9
$HANDSEED
5
FFFF
0
ENDSEC
0
SECTION
2
TABLES
0
TABLE
2
VPORT
5
8
100
AcDbSymbolTable
0
ENDTAB
0
TABLE
2
LTYPE
5
5
100
AcDbSymbolTable
0
LTYPE
5
14
100
AcDbSymbolTableRecord
100
AcDbLinetypeTableRecord
2
BYBLOCK
70
0
0
LTYPE
5
15
100
AcDbSymbolTableRecord
100
AcDbLinetypeTableRecord
2
BYLAYER
70
0
0
ENDTAB
0
TABLE
2
LAYER
5
2
100
AcDbSymbolTable
70
2
0
LAYER
5
50
100
AcDbSymbolTableRecord
100
AcDbLayerTableRecord
2
0
70
0
6
CONTINUOUS
0
ENDTAB
0
TABLE
2
STYLE
5
3
100
AcDbSymbolTable
70
1
0
STYLE
5
11
100
AcDbSymbolTableRecord
100
AcDbTextStyleTableRecord
2
STANDARD
70
0
0
ENDTAB
0
TABLE
2
VIEW
5
6
100
AcDbSymbolTable
70
0
0
ENDTAB
0
TABLE
2
UCS
5
7
100
AcDbSymbolTable
70
0
0
ENDTAB
0
TABLE
2
APPID
5
9
100
AcDbSymbolTable
70
2
0
APPID
5
12
100
AcDbSymbolTableRecord
100
AcDbRegAppTableRecord
2
ACAD
70
0
0
ENDTAB
0
TABLE
2
DIMSTYLE
5
A
100
AcDbSymbolTable
70
1
0
ENDTAB
0
TABLE
2
BLOCK_RECORD
5
1
100
AcDbSymbolTable
70
1
0
BLOCK_RECORD
5
1F
100
AcDbSymbolTableRecord
100
AcDbBlockTableRecord
2
*MODEL_SPACE
0
BLOCK_RECORD
5
1B
100
AcDbSymbolTableRecord
100
AcDbBlockTableRecord
2
*PAPER_SPACE
0
ENDTAB
0
ENDSEC
0
SECTION
2
BLOCKS
0
BLOCK
5
20
100
AcDbEntity
100
AcDbBlockBegin
2
*MODEL_SPACE
0
ENDBLK
5
21
100
AcDbEntity
100
AcDbBlockEnd
0
BLOCK
5
1C
100
AcDbEntity
100
AcDbBlockBegin
2
*PAPER_SPACE
0
ENDBLK
5
1D
100
AcDbEntity
100
AcDbBlockEnd
0
ENDSEC
0
SECTION
2
ENTITIES
0
ELLIPSE
5
100
100
AcDbEntity
8
0
100
AcDbEllipse
10
79.696431813322846
20
13.173686725299397
30
0
11
1.4641066137244252e-14
21
-3.7442359375090639
31
0.0
40
0.99619469806965533
41
2.7427601844347316
42
7.5228618229669575
0
ARC
5
101
100
AcDbEntity
8
0
100
AcDbCircle
10
79.568921461950623
20
13.125377967162446
30
0
40
3.8372649606408955
100
AcDbArc
50
65.750213979969232
51
342.26402254223893
0
CIRCLE
5
102
100
AcDbEntity
8
0
100
AcDbCircle
10
89.779428040206341
20
15.094121134524618
30
0
40
2.0836922246948926
0
CIRCLE
5
103
100
AcDbEntity
8
0
100
AcDbCircle
10
89.773081218020224
20
45.046148975414525
30
0
40
1.9942109273972084
0
LWPOLYLINE
5
104
100
AcDbEntity
8
0
100
AcDbPolyline
90
244
70
1
43
0.0
10
69.318279570597028
20
74.546875000000057
10
69.318279570597028
20
71.070250000000073
10
72.794904570597055
20
71.070250000000073
10
72.794904570597055
20
74.546875000000057
10
76.116748320597054
20
74.546875000000057
10
76.116748320597054
20
71.737000000000037
10
83.260498320597037
20
71.737000000000037
10
83.260498320597037
20
74.546875000000057
10
90.404248320597063
20
74.546875000000057
10
90.404248320597048
20
71.737000000000037
10
97.547998320597046
20
71.737000000000037
10
97.547998320597046
20
74.546875000000057
10
104.69174832059706
20
74.546875000000057
10
104.69174832059704
20
71.737000000000037
10
111.83549832059704
20
71.737000000000037
10
111.83549832059704
20
74.546875000000057
10
118.97924832059704
20
74.546875000000057
10
118.97924832059704
20
71.737000000000037
10
126.12299832059705
20
71.737000000000037
10
126.12299832059705
20
74.546875000000057
10
133.26674832059706
20
74.546875000000057
10
133.26674832059706
20
71.737000000000037
10
140.41049832059707
20
71.737000000000037
10
140.41049832059707
20
74.546875000000057
10
147.55424832059705
20
74.546875000000057
10
147.55424832059705
20
71.737000000000037
10
154.69799832059704
20
71.737000000000037
10
154.69799832059704
20
74.546875000000057
10
161.84174832059705
20
74.546875000000057
10
161.84174832059705
20
71.737000000000037
10
168.98549832059706
20
71.737000000000037
10
168.98549832059706
20
74.546875000000057
10
176.12924832059704
20
74.546875000000028
10
176.12924832059704
20
71.737000000000037
10
183.27299832059708
20
71.737000000000037
10
183.27299832059705
20
74.546875000000028
10
190.41674832059704
20
74.546875000000028
10
190.41674832059704
20
71.737000000000037
10
197.56049832059702
20
71.737000000000037
10
197.56049832059702
20
74.546875000000028
10
204.70424832059706
20
74.546875000000028
10
204.70424832059706
20
71.737000000000037
10
211.84799832059707
20
71.737000000000037
10
211.84799832059707
20
74.546875000000028
10
218.99174832059708
20
74.546875000000028
10
218.99174832059708
20
71.737000000000037
10
226.13549832059707
20
71.737000000000037
10
226.13549832059707
20
74.546875000000028
10
233.27924832059708
20
74.546875000000028
10
233.27924832059708
20
71.737000000000037
10
240.42299832059709
20
71.737000000000037
10
240.42299832059709
20
74.546875000000028
10
247.56674832059707
20
74.546875000000028
10
247.56674832059704
20
71.737000000000037
10
254.71049832059705
20
71.736999999999995
10
254.71049832059705
20
74.546874999999986
10
261.85424832059704
20
74.546874999999986
10
261.85424832059704
20
71.736999999999995
10
268.99799832059705
20
71.736999999999995
10
268.99799832059705
20
74.546874999999986
10
276.14174832059706
20
74.546874999999986
10
276.14174832059706
20
71.736999999999995
10
283.28549832059707
20
71.736999999999995
10
283.28549832059707
20
74.546874999999986
10
290.42924832059708
20
74.546874999999986
10
290.42924832059708
20
71.736999999999995
10
297.57299832059709
20
71.736999999999995
10
297.57299832059709
20
74.546874999999986
10
300.89484207059706
20
74.546874999999986
10
300.89484207059706
20
71.070250000000001
10
304.37146707059708
20
71.070250000000001
10
304.37146707059708
20
74.546875000000028
10
307.69331082059705
20
74.546874999999986
10
307.69331082059705
20
71.736999999999995
10
317.81362332059706
20
71.736999999999995
10
317.81362332059706
20
63.235937500000006
10
315.00374832059708
20
63.235937500000006
10
315.00374832059708
20
58.961593750000034
10
310.66987332059711
20
58.961593750000034
10
310.66987332059705
20
60.604656249999991
10
308.24099832059704
20
60.604656249999991
10
308.24099832059704
20
58.961593750000034
10
305.81212332059704
20
58.961593750000034
10
305.81212332059704
20
56.199343749999997
10
308.24099832059704
20
56.199343749999997
10
308.24099832059704
20
54.556281250000005
10
310.66987332059705
20
54.556281250000005
10
310.66987332059705
20
56.199343749999997
10
315.00374832059708
20
56.199343749999997
10
315.00374832059708
20
51.92499999999999
10
317.81362332059706
20
51.92499999999999
10
317.81362332059706
20
44.781249999999986
10
315.00374832059708
20
44.781249999999986
10
315.00374832059708
20
37.637499999999982
10
317.81362332059706
20
37.637500000000003
10
317.81362332059706
20
30.493749999999995
10
315.00374832059708
20
30.493749999999995
10
315.00374832059708
20
23.349999999999991
10
317.81362332059706
20
23.349999999999991
10
317.81362332059706
20
16.206249999999986
10
315.00374832059708
20
16.206250000000004
10
315.00374832059708
20
9.0625
10
317.81362332059706
20
9.0625
10
317.81362332059706
20
1.9187499999999957
10
315.00374832059708
20
1.9187499999999957
10
315.00374832059708
20
-2.3555937499999935
10
310.66987332059705
20
-2.3555937499999935
10
310.66987332059705
20
-0.71253125000000139
10
308.24099832059699
20
-0.71253125000000139
10
308.24099832059699
20
-2.3555937499999935
10
305.81212332059704
20
-2.3555937499999935
10
305.81212332059704
20
-5.1178437499999951
10
308.24099832059699
20
-5.1178437499999951
10
308.24099832059699
20
-6.7609062499999872
10
310.66987332059705
20
-6.7609062499999872
10
310.66987332059705
20
-5.1178437499999951
10
315.00374832059703
20
-5.1178437499999951
10
315.00374832059708
20
-9.3921875000000021
10
317.81362332059706
20
-9.3921875000000021
10
317.81362332059706
20
-17.893249999999998
10
307.69331082059705
20
-17.893249999999998
10
307.69331082059705
20
-20.703125
10
304.37146707059708
20
-20.703125
10
304.37146707059708
20
-17.226499999999998
10
300.89484207059706
20
-17.226499999999998
10
300.89484207059701
20
-20.703125
10
297.57299832059704
20
-20.703125
10
297.57299832059704
20
-17.893249999999998
10
290.42924832059703
20
-17.893249999999998
10
290.42924832059703
20
-20.703125
10
283.28549832059701
20
-20.703125
10
283.28549832059701
20
-17.893249999999998
10
276.141748320597
20
-17.893249999999998
10
276.141748320597
20
-20.703125
10
268.99799832059705
20
-20.703125
10
268.99799832059705
20
-17.893249999999998
10
261.85424832059704
20
-17.893249999999998
10
261.85424832059704
20
-20.703125
10
254.71049832059703
20
-20.703125
10
254.71049832059703
20
-17.893249999999998
10
247.56674832059701
20
-17.893249999999981
10
247.56674832059701
20
-20.703125
10
240.422998320597
20
-20.703124999999982
10
240.42299832059706
20
-17.893249999999981
10
233.27924832059705
20
-17.893249999999981
10
233.27924832059705
20
-20.703124999999982
10
226.13549832059704
20
-20.703124999999982
10
226.13549832059704
20
-17.893249999999981
10
218.99174832059703
20
-17.893249999999981
10
218.99174832059703
20
-20.703124999999982
10
211.84799832059701
20
-20.703124999999982
10
211.84799832059701
20
-17.893249999999981
10
204.70424832059703
20
-17.893249999999981
10
204.70424832059703
20
-20.703124999999982
10
197.56049832059702
20
-20.703124999999982
10
197.56049832059702
20
-17.893249999999981
10
190.41674832059701
20
-17.893249999999981
10
190.41674832059701
20
-20.703124999999982
10
183.27299832059703
20
-20.703124999999982
10
183.27299832059703
20
-17.893249999999981
10
176.12924832059704
20
-17.893249999999981
10
176.12924832059704
20
-20.703124999999982
10
168.98549832059703
20
-20.703124999999964
10
168.98549832059703
20
-17.893249999999981
10
161.84174832059705
20
-17.893249999999963
10
161.84174832059705
20
-20.703124999999964
10
154.69799832059704
20
-20.703124999999964
10
154.69799832059704
20
-17.893249999999963
10
147.55424832059703
20
-17.893249999999963
10
147.55424832059703
20
-20.703124999999964
10
140.41049832059701
20
-20.703124999999964
10
140.41049832059704
20
-17.893249999999963
10
133.26674832059703
20
-17.893249999999963
10
133.26674832059703
20
-20.703124999999964
10
126.12299832059703
20
-20.703124999999964
10
126.12299832059703
20
-17.893249999999963
10
118.97924832059702
20
-17.893249999999963
10
118.97924832059702
20
-20.703124999999964
10
111.83549832059703
20
-20.703124999999964
10
111.83549832059703
20
-17.893249999999963
10
104.69174832059704
20
-17.893249999999963
10
104.69174832059704
20
-20.703124999999964
10
97.547998320597031
20
-20.703124999999964
10
97.547998320597031
20
-17.893249999999963
10
90.40424832059702
20
-17.893249999999945
10
90.40424832059702
20
-20.703124999999964
10
83.260498320597023
20
-20.703124999999947
10
83.260498320597023
20
-17.893249999999945
10
76.116748320597026
20
-17.893249999999945
10
76.116748320597026
20
-20.703124999999947
10
72.794904570597012
20
-20.703124999999947
10
72.794904570597012
20
-17.226499999999945
10
69.318279570597028
20
-17.226499999999945
10
69.318279570597028
20
-20.703124999999947
10
65.996435820597014
20
-20.703124999999947
10
65.996435820597014
20
-17.893249999999945
10
55.876123320596989
20
-17.893249999999945
10
55.876123320597024
20
-9.3921874999999488
10
58.685998320597008
20
-9.3921874999999488
10
58.685998320597008
20
-5.1178437499999418
10
63.019873320597029
20
-5.1178437499999418
10
63.019873320596993
20
-6.7609062499999339
10
65.448748320597019
20
-6.7609062499999339
10
65.448748320597019
20
-5.1178437499999418
10
67.877623320596996
20
-5.1178437499999418
10
67.877623320596996
20
-2.3555937499999402
10
65.448748320597019
20
-2.3555937499999402
10
65.448748320597019
20
-0.7125312499999481
10
63.019873320597029
20
-0.7125312499999481
10
63.019873320596993
20
-2.3555937499999402
10
58.685998320597008
20
-2.3555937499999402
10
58.685998320597008
20
1.9187500000000668
10
55.876123320597024
20
1.9187500000000668
10
55.876123320597024
20
9.0625000000000533
10
58.685998320597008
20
9.0625000000000533
10
58.685998320597008
20
16.206250000000058
10
55.876123320597024
20
16.206250000000058
10
55.876123320597024
20
23.350000000000062
10
58.685998320597008
20
23.350000000000044
10
58.685998320597008
20
30.493750000000048
10
55.876123320597024
20
30.493750000000048
10
55.876123320597024
20
37.637500000000053
10
58.685998320597008
20
37.637500000000053
10
58.685998320597008
20
44.781250000000057
10
55.876123320597024
20
44.781250000000057
10
55.876123320597024
20
51.925000000000061
10
58.685998320597008
20
51.925000000000061
10
58.685998320597008
20
56.199343750000068
10
63.019873320597029
20
56.199343750000068
10
63.019873320597029
20
54.55628125000004
10
65.448748320597019
20
54.55628125000004
10
65.448748320597019
20
56.199343750000068
10
67.877623320597024
20
56.199343750000068
10
67.877623320597024
20
58.96159375000007
10
65.448748320597019
20
58.96159375000007
10
65.448748320597019
20
60.604656250000062
10
63.019873320597029
20
60.604656250000062
10
63.019873320597029
20
58.96159375000007
10
58.685998320597008
20
58.96159375000007
10
58.685998320597008
20
63.235937500000077
10
55.876123320597024
20
63.235937500000077
10
55.876123320597024
20
71.737000000000037
10
65.996435820597014
20
71.737000000000037
10
65.996435820597014
20
74.546875000000057
0
CIRCLE
5
105
100
AcDbEntity
8
0
100
AcDbCircle
10
79.568921461950623
20
13.125377967162446
30
0
40
3.8372649606412401
0
ENDSEC
0
SECTION
2
OBJECTS
0
DICTIONARY
5
C
100
AcDbDictionary
3
ACAD_GROUP
350
D
3
ACAD_MLINESTYLE
350
17
0
DICTIONARY
5
D
100
AcDbDictionary
0
DICTIONARY
5
1A
330
C
100
AcDbDictionary
0
DICTIONARY
5
17
100
AcDbDictionary
0
ENDSEC
0
EOF
